<mxfile host="app.diagrams.net" agent="Mozilla/5.0 (Macintosh; Intel Mac OS X 10_15_7) AppleWebKit/537.36 (KHTML, like Gecko) Chrome/130.0.0.0 Safari/537.36" version="24.8.6">
  <diagram name="Page-1" id="2c0d36ab-eaac-3732-788b-9136903baeff">
    <mxGraphModel dx="1468" dy="994" grid="1" gridSize="10" guides="1" tooltips="1" connect="1" arrows="1" fold="1" page="1" pageScale="1.5" pageWidth="1169" pageHeight="827" background="none" math="0" shadow="0">
      <root>
        <mxCell id="0" />
        <mxCell id="1" parent="0" />
        <mxCell id="5-mkA0bQX9usNfeo3nPN-68" style="edgeStyle=orthogonalEdgeStyle;rounded=0;orthogonalLoop=1;jettySize=auto;html=1;exitX=0;exitY=0.5;exitDx=0;exitDy=0;fontSize=12;startSize=8;endSize=8;elbow=vertical;curved=1;strokeWidth=2;" parent="1" source="9eoYk4JdWVkMoVRMEfXp-136" edge="1">
          <mxGeometry relative="1" as="geometry">
            <mxPoint x="953" y="734.5" as="targetPoint" />
            <mxPoint x="1973" y="210" as="sourcePoint" />
            <Array as="points">
              <mxPoint x="1538" y="215" />
              <mxPoint x="1538" y="735" />
            </Array>
          </mxGeometry>
        </mxCell>
        <mxCell id="9eoYk4JdWVkMoVRMEfXp-137" style="edgeStyle=orthogonalEdgeStyle;rounded=0;orthogonalLoop=1;jettySize=auto;html=1;exitX=0.5;exitY=1;exitDx=0;exitDy=0;entryX=0.5;entryY=0;entryDx=0;entryDy=0;strokeWidth=2;" parent="1" source="2" target="9eoYk4JdWVkMoVRMEfXp-126" edge="1">
          <mxGeometry relative="1" as="geometry" />
        </mxCell>
        <mxCell id="9eoYk4JdWVkMoVRMEfXp-138" style="edgeStyle=orthogonalEdgeStyle;rounded=0;orthogonalLoop=1;jettySize=auto;html=1;exitX=0.5;exitY=1;exitDx=0;exitDy=0;entryX=0.5;entryY=0;entryDx=0;entryDy=0;strokeWidth=2;" parent="1" source="2" target="9eoYk4JdWVkMoVRMEfXp-130" edge="1">
          <mxGeometry relative="1" as="geometry">
            <mxPoint x="1235.7906976744187" y="140" as="targetPoint" />
          </mxGeometry>
        </mxCell>
        <mxCell id="9eoYk4JdWVkMoVRMEfXp-139" style="edgeStyle=orthogonalEdgeStyle;rounded=0;orthogonalLoop=1;jettySize=auto;html=1;exitX=0.5;exitY=1;exitDx=0;exitDy=0;entryX=0.5;entryY=0;entryDx=0;entryDy=0;strokeWidth=2;" parent="1" source="2" target="9eoYk4JdWVkMoVRMEfXp-132" edge="1">
          <mxGeometry relative="1" as="geometry" />
        </mxCell>
        <mxCell id="9eoYk4JdWVkMoVRMEfXp-140" style="edgeStyle=orthogonalEdgeStyle;rounded=0;orthogonalLoop=1;jettySize=auto;html=1;exitX=0.5;exitY=1;exitDx=0;exitDy=0;entryX=0.5;entryY=0;entryDx=0;entryDy=0;strokeWidth=2;" parent="1" source="2" target="9eoYk4JdWVkMoVRMEfXp-134" edge="1">
          <mxGeometry relative="1" as="geometry" />
        </mxCell>
        <mxCell id="9eoYk4JdWVkMoVRMEfXp-141" style="edgeStyle=orthogonalEdgeStyle;rounded=0;orthogonalLoop=1;jettySize=auto;html=1;exitX=0.5;exitY=1;exitDx=0;exitDy=0;entryX=0.5;entryY=0;entryDx=0;entryDy=0;strokeWidth=2;" parent="1" source="2" target="9eoYk4JdWVkMoVRMEfXp-136" edge="1">
          <mxGeometry relative="1" as="geometry" />
        </mxCell>
        <mxCell id="2" value="Головна  ✅ ☑️" style="rounded=1;fillColor=#23445D;gradientColor=none;strokeColor=none;fontColor=#FFFFFF;fontStyle=1;fontFamily=Tahoma;fontSize=14" parent="1" vertex="1">
          <mxGeometry x="1273" width="190" height="80" as="geometry" />
        </mxCell>
        <mxCell id="4" value="Контакти ✅ ☑️" style="rounded=1;fillColor=#23445D;gradientColor=none;strokeColor=none;fontColor=#FFFFFF;fontStyle=1;fontFamily=Tahoma;fontSize=14" parent="1" vertex="1">
          <mxGeometry x="2253" y="175.5" width="190" height="80" as="geometry" />
        </mxCell>
        <mxCell id="9" value="" style="edgeStyle=elbowEdgeStyle;elbow=vertical;strokeWidth=2;rounded=0" parent="1" source="2" target="4" edge="1">
          <mxGeometry x="337" y="215.5" width="100" height="100" as="geometry">
            <mxPoint x="230" y="155.5" as="sourcePoint" />
            <mxPoint x="330" y="55.5" as="targetPoint" />
          </mxGeometry>
        </mxCell>
        <mxCell id="9eoYk4JdWVkMoVRMEfXp-123" style="edgeStyle=orthogonalEdgeStyle;rounded=0;orthogonalLoop=1;jettySize=auto;html=1;exitX=0.5;exitY=0;exitDx=0;exitDy=0;startArrow=classic;startFill=1;endArrow=none;endFill=0;strokeWidth=2;entryX=0.5;entryY=1;entryDx=0;entryDy=0;" parent="1" source="10" target="2" edge="1">
          <mxGeometry relative="1" as="geometry">
            <mxPoint x="668" y="140" as="targetPoint" />
          </mxGeometry>
        </mxCell>
        <mxCell id="9eoYk4JdWVkMoVRMEfXp-151" style="edgeStyle=orthogonalEdgeStyle;rounded=0;orthogonalLoop=1;jettySize=auto;html=1;exitX=0.5;exitY=1;exitDx=0;exitDy=0;entryX=0;entryY=0.5;entryDx=0;entryDy=0;strokeWidth=2;" parent="1" source="10" target="9eoYk4JdWVkMoVRMEfXp-150" edge="1">
          <mxGeometry relative="1" as="geometry" />
        </mxCell>
        <mxCell id="9eoYk4JdWVkMoVRMEfXp-155" style="edgeStyle=orthogonalEdgeStyle;rounded=0;orthogonalLoop=1;jettySize=auto;html=1;exitX=0.5;exitY=1;exitDx=0;exitDy=0;entryX=0;entryY=0.5;entryDx=0;entryDy=0;strokeWidth=2;" parent="1" source="10" target="9eoYk4JdWVkMoVRMEfXp-154" edge="1">
          <mxGeometry relative="1" as="geometry" />
        </mxCell>
        <mxCell id="9eoYk4JdWVkMoVRMEfXp-157" style="edgeStyle=orthogonalEdgeStyle;rounded=0;orthogonalLoop=1;jettySize=auto;html=1;exitX=0.5;exitY=1;exitDx=0;exitDy=0;entryX=0;entryY=0.5;entryDx=0;entryDy=0;strokeWidth=2;" parent="1" source="10" target="9eoYk4JdWVkMoVRMEfXp-156" edge="1">
          <mxGeometry relative="1" as="geometry" />
        </mxCell>
        <mxCell id="10" value="Наука  ✅ ☑️" style="rounded=1;fillColor=#23445D;gradientColor=none;strokeColor=none;fontColor=#FFFFFF;fontStyle=1;fontFamily=Tahoma;fontSize=14" parent="1" vertex="1">
          <mxGeometry x="573" y="175.5" width="190" height="80" as="geometry" />
        </mxCell>
        <mxCell id="9eoYk4JdWVkMoVRMEfXp-143" style="edgeStyle=orthogonalEdgeStyle;rounded=0;orthogonalLoop=1;jettySize=auto;html=1;exitX=0.5;exitY=1;exitDx=0;exitDy=0;entryX=0;entryY=0.5;entryDx=0;entryDy=0;strokeWidth=2;" parent="1" source="12" target="9eoYk4JdWVkMoVRMEfXp-142" edge="1">
          <mxGeometry relative="1" as="geometry" />
        </mxCell>
        <mxCell id="9eoYk4JdWVkMoVRMEfXp-145" style="edgeStyle=orthogonalEdgeStyle;rounded=0;orthogonalLoop=1;jettySize=auto;html=1;exitX=0.5;exitY=1;exitDx=0;exitDy=0;entryX=0;entryY=0.5;entryDx=0;entryDy=0;strokeWidth=2;" parent="1" source="12" target="9eoYk4JdWVkMoVRMEfXp-144" edge="1">
          <mxGeometry relative="1" as="geometry" />
        </mxCell>
        <mxCell id="9eoYk4JdWVkMoVRMEfXp-147" style="edgeStyle=orthogonalEdgeStyle;rounded=0;orthogonalLoop=1;jettySize=auto;html=1;exitX=0.5;exitY=1;exitDx=0;exitDy=0;entryX=0;entryY=0.5;entryDx=0;entryDy=0;strokeWidth=2;" parent="1" source="12" target="9eoYk4JdWVkMoVRMEfXp-146" edge="1">
          <mxGeometry relative="1" as="geometry" />
        </mxCell>
        <mxCell id="9eoYk4JdWVkMoVRMEfXp-149" style="edgeStyle=orthogonalEdgeStyle;rounded=0;orthogonalLoop=1;jettySize=auto;html=1;exitX=0.5;exitY=1;exitDx=0;exitDy=0;entryX=0;entryY=0.5;entryDx=0;entryDy=0;strokeWidth=2;" parent="1" source="12" target="9eoYk4JdWVkMoVRMEfXp-148" edge="1">
          <mxGeometry relative="1" as="geometry" />
        </mxCell>
        <mxCell id="12" value="Освітні програми ✅ ☑️" style="rounded=1;fillColor=#23445D;gradientColor=none;strokeColor=none;fontColor=#FFFFFF;fontStyle=1;fontFamily=Tahoma;fontSize=14" parent="1" vertex="1">
          <mxGeometry x="292.9999999999999" y="175.5" width="190" height="80" as="geometry" />
        </mxCell>
        <mxCell id="13" value="Кафедра  ✅ ☑️" style="rounded=1;fillColor=#23445D;gradientColor=none;strokeColor=none;fontColor=#FFFFFF;fontStyle=1;fontFamily=Tahoma;fontSize=14" parent="1" vertex="1">
          <mxGeometry y="175.5" width="190" height="80" as="geometry" />
        </mxCell>
        <mxCell id="16" value="Співробітники  ✅ ☑️" style="rounded=1;fillColor=#23445D;gradientColor=none;strokeColor=none;fontColor=#FFFFFF;fontStyle=1;fontFamily=Tahoma;fontSize=14" parent="1" vertex="1">
          <mxGeometry x="130" y="295.5" width="163" height="60" as="geometry" />
        </mxCell>
        <mxCell id="17" value="Розташування  ✅ ☑️" style="rounded=1;fillColor=#23445D;gradientColor=none;strokeColor=none;fontColor=#FFFFFF;fontStyle=1;fontFamily=Tahoma;fontSize=14" parent="1" vertex="1">
          <mxGeometry x="130" y="385.5" width="163" height="60" as="geometry" />
        </mxCell>
        <mxCell id="18" value="Лабораторії  ✅ ☑️" style="rounded=1;fillColor=#23445D;gradientColor=none;strokeColor=none;fontColor=#FFFFFF;fontStyle=1;fontFamily=Tahoma;fontSize=14" parent="1" vertex="1">
          <mxGeometry x="130" y="475.5" width="163" height="60" as="geometry" />
        </mxCell>
        <mxCell id="19" value="Історія  ✅ ☑️" style="rounded=1;fillColor=#23445D;gradientColor=none;strokeColor=none;fontColor=#FFFFFF;fontStyle=1;fontFamily=Tahoma;fontSize=14" parent="1" vertex="1">
          <mxGeometry x="130" y="565.5" width="163" height="60" as="geometry" />
        </mxCell>
        <mxCell id="59" value="" style="edgeStyle=elbowEdgeStyle;elbow=vertical;strokeWidth=2;rounded=0" parent="1" source="2" target="12" edge="1">
          <mxGeometry x="347" y="225.5" width="100" height="100" as="geometry">
            <mxPoint x="754.9999999999999" y="115.5" as="sourcePoint" />
            <mxPoint x="1359.9999999999998" y="185.5" as="targetPoint" />
          </mxGeometry>
        </mxCell>
        <mxCell id="61" value="" style="edgeStyle=elbowEdgeStyle;elbow=vertical;strokeWidth=2;rounded=0" parent="1" source="2" target="13" edge="1">
          <mxGeometry x="-23" y="135.5" width="100" height="100" as="geometry">
            <mxPoint x="-130" y="75.5" as="sourcePoint" />
            <mxPoint x="-30" y="-24.5" as="targetPoint" />
          </mxGeometry>
        </mxCell>
        <mxCell id="64" value="" style="edgeStyle=elbowEdgeStyle;elbow=horizontal;strokeWidth=2;rounded=0" parent="1" source="13" target="16" edge="1">
          <mxGeometry x="-23" y="135.5" width="100" height="100" as="geometry">
            <mxPoint x="-130" y="75.5" as="sourcePoint" />
            <mxPoint x="-30" y="-24.5" as="targetPoint" />
            <Array as="points">
              <mxPoint x="95" y="275.5" />
            </Array>
          </mxGeometry>
        </mxCell>
        <mxCell id="65" value="" style="edgeStyle=elbowEdgeStyle;elbow=horizontal;strokeWidth=2;rounded=0" parent="1" source="13" target="17" edge="1">
          <mxGeometry x="-23" y="135.5" width="100" height="100" as="geometry">
            <mxPoint x="-130" y="75.5" as="sourcePoint" />
            <mxPoint x="-30" y="-24.5" as="targetPoint" />
            <Array as="points">
              <mxPoint x="95" y="315.5" />
            </Array>
          </mxGeometry>
        </mxCell>
        <mxCell id="66" value="" style="edgeStyle=elbowEdgeStyle;elbow=horizontal;strokeWidth=2;rounded=0" parent="1" source="13" target="18" edge="1">
          <mxGeometry x="-23" y="135.5" width="100" height="100" as="geometry">
            <mxPoint x="-130" y="75.5" as="sourcePoint" />
            <mxPoint x="-30" y="-24.5" as="targetPoint" />
            <Array as="points">
              <mxPoint x="95" y="365.5" />
            </Array>
          </mxGeometry>
        </mxCell>
        <mxCell id="67" value="" style="edgeStyle=elbowEdgeStyle;elbow=horizontal;strokeWidth=2;rounded=0" parent="1" source="13" target="19" edge="1">
          <mxGeometry x="-23" y="135.5" width="100" height="100" as="geometry">
            <mxPoint x="-130" y="75.5" as="sourcePoint" />
            <mxPoint x="-30" y="-24.5" as="targetPoint" />
            <Array as="points">
              <mxPoint x="95" y="415.5" />
            </Array>
          </mxGeometry>
        </mxCell>
        <mxCell id="9eoYk4JdWVkMoVRMEfXp-159" style="edgeStyle=orthogonalEdgeStyle;rounded=0;orthogonalLoop=1;jettySize=auto;html=1;exitX=0.5;exitY=1;exitDx=0;exitDy=0;entryX=0;entryY=0.5;entryDx=0;entryDy=0;strokeWidth=2;" parent="1" source="9eoYk4JdWVkMoVRMEfXp-126" target="9eoYk4JdWVkMoVRMEfXp-158" edge="1">
          <mxGeometry relative="1" as="geometry" />
        </mxCell>
        <mxCell id="9eoYk4JdWVkMoVRMEfXp-161" style="edgeStyle=orthogonalEdgeStyle;rounded=0;orthogonalLoop=1;jettySize=auto;html=1;exitX=0.5;exitY=1;exitDx=0;exitDy=0;entryX=0;entryY=0.5;entryDx=0;entryDy=0;strokeWidth=2;" parent="1" source="9eoYk4JdWVkMoVRMEfXp-126" target="9eoYk4JdWVkMoVRMEfXp-160" edge="1">
          <mxGeometry relative="1" as="geometry" />
        </mxCell>
        <mxCell id="9eoYk4JdWVkMoVRMEfXp-174" style="edgeStyle=orthogonalEdgeStyle;rounded=0;orthogonalLoop=1;jettySize=auto;html=1;exitX=0.5;exitY=1;exitDx=0;exitDy=0;entryX=0;entryY=0.5;entryDx=0;entryDy=0;strokeWidth=2;" parent="1" source="9eoYk4JdWVkMoVRMEfXp-126" target="9eoYk4JdWVkMoVRMEfXp-162" edge="1">
          <mxGeometry relative="1" as="geometry" />
        </mxCell>
        <mxCell id="9eoYk4JdWVkMoVRMEfXp-175" style="edgeStyle=orthogonalEdgeStyle;rounded=0;orthogonalLoop=1;jettySize=auto;html=1;exitX=0.5;exitY=1;exitDx=0;exitDy=0;entryX=0;entryY=0.5;entryDx=0;entryDy=0;strokeWidth=2;" parent="1" source="9eoYk4JdWVkMoVRMEfXp-126" target="9eoYk4JdWVkMoVRMEfXp-163" edge="1">
          <mxGeometry relative="1" as="geometry" />
        </mxCell>
        <mxCell id="9eoYk4JdWVkMoVRMEfXp-176" style="edgeStyle=orthogonalEdgeStyle;rounded=0;orthogonalLoop=1;jettySize=auto;html=1;exitX=0.5;exitY=1;exitDx=0;exitDy=0;entryX=0;entryY=0.5;entryDx=0;entryDy=0;strokeWidth=2;" parent="1" source="9eoYk4JdWVkMoVRMEfXp-126" target="9eoYk4JdWVkMoVRMEfXp-164" edge="1">
          <mxGeometry relative="1" as="geometry" />
        </mxCell>
        <mxCell id="9eoYk4JdWVkMoVRMEfXp-177" style="edgeStyle=orthogonalEdgeStyle;rounded=0;orthogonalLoop=1;jettySize=auto;html=1;exitX=0.5;exitY=1;exitDx=0;exitDy=0;entryX=0;entryY=0.5;entryDx=0;entryDy=0;strokeWidth=2;" parent="1" source="9eoYk4JdWVkMoVRMEfXp-126" target="9eoYk4JdWVkMoVRMEfXp-166" edge="1">
          <mxGeometry relative="1" as="geometry" />
        </mxCell>
        <mxCell id="9eoYk4JdWVkMoVRMEfXp-179" style="edgeStyle=orthogonalEdgeStyle;rounded=0;orthogonalLoop=1;jettySize=auto;html=1;exitX=0.5;exitY=1;exitDx=0;exitDy=0;entryX=0;entryY=0.5;entryDx=0;entryDy=0;strokeWidth=2;" parent="1" source="9eoYk4JdWVkMoVRMEfXp-126" target="9eoYk4JdWVkMoVRMEfXp-167" edge="1">
          <mxGeometry relative="1" as="geometry" />
        </mxCell>
        <mxCell id="9eoYk4JdWVkMoVRMEfXp-180" style="edgeStyle=orthogonalEdgeStyle;rounded=0;orthogonalLoop=1;jettySize=auto;html=1;exitX=0.5;exitY=1;exitDx=0;exitDy=0;entryX=0;entryY=0.5;entryDx=0;entryDy=0;strokeWidth=2;" parent="1" source="9eoYk4JdWVkMoVRMEfXp-126" target="9eoYk4JdWVkMoVRMEfXp-170" edge="1">
          <mxGeometry relative="1" as="geometry" />
        </mxCell>
        <mxCell id="9eoYk4JdWVkMoVRMEfXp-182" style="edgeStyle=orthogonalEdgeStyle;rounded=0;orthogonalLoop=1;jettySize=auto;html=1;exitX=0.5;exitY=1;exitDx=0;exitDy=0;entryX=0;entryY=0.5;entryDx=0;entryDy=0;strokeWidth=2;" parent="1" source="9eoYk4JdWVkMoVRMEfXp-126" target="9eoYk4JdWVkMoVRMEfXp-171" edge="1">
          <mxGeometry relative="1" as="geometry" />
        </mxCell>
        <mxCell id="9eoYk4JdWVkMoVRMEfXp-183" style="edgeStyle=orthogonalEdgeStyle;rounded=0;orthogonalLoop=1;jettySize=auto;html=1;exitX=0.5;exitY=1;exitDx=0;exitDy=0;entryX=0;entryY=0.5;entryDx=0;entryDy=0;strokeWidth=2;" parent="1" source="9eoYk4JdWVkMoVRMEfXp-126" target="9eoYk4JdWVkMoVRMEfXp-173" edge="1">
          <mxGeometry relative="1" as="geometry" />
        </mxCell>
        <mxCell id="9eoYk4JdWVkMoVRMEfXp-126" value="Для студентів ✅ ☑️" style="rounded=1;fillColor=#23445D;gradientColor=none;strokeColor=none;fontColor=#FFFFFF;fontStyle=1;fontFamily=Tahoma;fontSize=14" parent="1" vertex="1">
          <mxGeometry x="853" y="175.5" width="190" height="80" as="geometry" />
        </mxCell>
        <mxCell id="9eoYk4JdWVkMoVRMEfXp-188" style="edgeStyle=orthogonalEdgeStyle;rounded=0;orthogonalLoop=1;jettySize=auto;html=1;exitX=0.5;exitY=1;exitDx=0;exitDy=0;entryX=0;entryY=0.5;entryDx=0;entryDy=0;strokeWidth=2;" parent="1" source="9eoYk4JdWVkMoVRMEfXp-130" target="9eoYk4JdWVkMoVRMEfXp-184" edge="1">
          <mxGeometry relative="1" as="geometry" />
        </mxCell>
        <mxCell id="9eoYk4JdWVkMoVRMEfXp-189" style="edgeStyle=orthogonalEdgeStyle;rounded=0;orthogonalLoop=1;jettySize=auto;html=1;exitX=0.5;exitY=1;exitDx=0;exitDy=0;entryX=0;entryY=0.5;entryDx=0;entryDy=0;strokeWidth=2;" parent="1" source="9eoYk4JdWVkMoVRMEfXp-130" target="9eoYk4JdWVkMoVRMEfXp-185" edge="1">
          <mxGeometry relative="1" as="geometry" />
        </mxCell>
        <mxCell id="9eoYk4JdWVkMoVRMEfXp-190" style="edgeStyle=orthogonalEdgeStyle;rounded=0;orthogonalLoop=1;jettySize=auto;html=1;exitX=0.5;exitY=1;exitDx=0;exitDy=0;entryX=0;entryY=0.5;entryDx=0;entryDy=0;strokeWidth=2;" parent="1" source="9eoYk4JdWVkMoVRMEfXp-130" target="9eoYk4JdWVkMoVRMEfXp-186" edge="1">
          <mxGeometry relative="1" as="geometry" />
        </mxCell>
        <mxCell id="9eoYk4JdWVkMoVRMEfXp-130" value="Для абітурієнтів ✅ ☑️" style="rounded=1;fillColor=#23445D;gradientColor=none;strokeColor=none;fontColor=#FFFFFF;fontStyle=1;fontFamily=Tahoma;fontSize=14" parent="1" vertex="1">
          <mxGeometry x="1133" y="175.5" width="190" height="80" as="geometry" />
        </mxCell>
        <mxCell id="9eoYk4JdWVkMoVRMEfXp-192" style="edgeStyle=orthogonalEdgeStyle;rounded=0;orthogonalLoop=1;jettySize=auto;html=1;exitX=0.5;exitY=1;exitDx=0;exitDy=0;entryX=0;entryY=0.5;entryDx=0;entryDy=0;strokeWidth=2;" parent="1" source="9eoYk4JdWVkMoVRMEfXp-132" target="9eoYk4JdWVkMoVRMEfXp-191" edge="1">
          <mxGeometry relative="1" as="geometry" />
        </mxCell>
        <mxCell id="9eoYk4JdWVkMoVRMEfXp-132" value="Підвищення&#xa;кваліфікації ❌" style="rounded=1;fillColor=#23445D;gradientColor=none;strokeColor=none;fontColor=#FFFFFF;fontStyle=1;fontFamily=Tahoma;fontSize=14" parent="1" vertex="1">
          <mxGeometry x="1413" y="175.5" width="190" height="80" as="geometry" />
        </mxCell>
        <mxCell id="9eoYk4JdWVkMoVRMEfXp-196" style="edgeStyle=orthogonalEdgeStyle;rounded=0;orthogonalLoop=1;jettySize=auto;html=1;exitX=0.5;exitY=1;exitDx=0;exitDy=0;entryX=0;entryY=0.5;entryDx=0;entryDy=0;strokeWidth=2;" parent="1" source="9eoYk4JdWVkMoVRMEfXp-134" target="9eoYk4JdWVkMoVRMEfXp-193" edge="1">
          <mxGeometry relative="1" as="geometry" />
        </mxCell>
        <mxCell id="9eoYk4JdWVkMoVRMEfXp-197" style="edgeStyle=orthogonalEdgeStyle;rounded=0;orthogonalLoop=1;jettySize=auto;html=1;exitX=0.5;exitY=1;exitDx=0;exitDy=0;entryX=0;entryY=0.5;entryDx=0;entryDy=0;strokeWidth=2;" parent="1" source="9eoYk4JdWVkMoVRMEfXp-134" target="9eoYk4JdWVkMoVRMEfXp-194" edge="1">
          <mxGeometry relative="1" as="geometry" />
        </mxCell>
        <mxCell id="9eoYk4JdWVkMoVRMEfXp-198" style="edgeStyle=orthogonalEdgeStyle;rounded=0;orthogonalLoop=1;jettySize=auto;html=1;exitX=0.5;exitY=1;exitDx=0;exitDy=0;entryX=0;entryY=0.5;entryDx=0;entryDy=0;strokeWidth=2;" parent="1" source="9eoYk4JdWVkMoVRMEfXp-134" target="9eoYk4JdWVkMoVRMEfXp-195" edge="1">
          <mxGeometry relative="1" as="geometry" />
        </mxCell>
        <mxCell id="9eoYk4JdWVkMoVRMEfXp-134" value="Фотогалерея  ✅ ☑️" style="rounded=1;fillColor=#23445D;gradientColor=none;strokeColor=none;fontColor=#FFFFFF;fontStyle=1;fontFamily=Tahoma;fontSize=14" parent="1" vertex="1">
          <mxGeometry x="1693" y="175.5" width="190" height="80" as="geometry" />
        </mxCell>
        <mxCell id="9eoYk4JdWVkMoVRMEfXp-136" value="Дистанційне&#xa;навчання ✅ ☑️" style="rounded=1;fillColor=#23445D;gradientColor=none;strokeColor=none;fontColor=#FFFFFF;fontStyle=1;fontFamily=Tahoma;fontSize=14" parent="1" vertex="1">
          <mxGeometry x="1973" y="175.5" width="190" height="80" as="geometry" />
        </mxCell>
        <mxCell id="9eoYk4JdWVkMoVRMEfXp-142" value="Електроенергетика&#xa;01&#xa;Електричні станції ✅ ☑️" style="rounded=1;fillColor=#23445D;gradientColor=none;strokeColor=none;fontColor=#FFFFFF;fontStyle=1;fontFamily=Tahoma;fontSize=14" parent="1" vertex="1">
          <mxGeometry x="413" y="295.5" width="190" height="60" as="geometry" />
        </mxCell>
        <mxCell id="9eoYk4JdWVkMoVRMEfXp-144" value="Електроенергетика&#xa;05&#xa;Енергетичний&#xa;менеджмент ✅ ☑️" style="rounded=1;fillColor=#23445D;gradientColor=none;strokeColor=none;fontColor=#FFFFFF;fontStyle=1;fontFamily=Tahoma;fontSize=14" parent="1" vertex="1">
          <mxGeometry x="413" y="378.25" width="190" height="74.5" as="geometry" />
        </mxCell>
        <mxCell id="9eoYk4JdWVkMoVRMEfXp-146" value="Стала та&#xa;відновлювана&#xa;енергетика" style="rounded=1;fillColor=#23445D;gradientColor=none;strokeColor=none;fontColor=#FFFFFF;fontStyle=1;fontFamily=Tahoma;fontSize=14" parent="1" vertex="1">
          <mxGeometry x="413" y="475.5" width="190" height="60" as="geometry" />
        </mxCell>
        <mxCell id="9eoYk4JdWVkMoVRMEfXp-148" value="НКМД" style="rounded=1;fillColor=#23445D;gradientColor=none;strokeColor=none;fontColor=#FFFFFF;fontStyle=1;fontFamily=Tahoma;fontSize=14" parent="1" vertex="1">
          <mxGeometry x="428" y="565.5" width="130" height="60" as="geometry" />
        </mxCell>
        <mxCell id="9eoYk4JdWVkMoVRMEfXp-150" value="Публікації  ✅ ☑️" style="rounded=1;fillColor=#23445D;gradientColor=none;strokeColor=none;fontColor=#FFFFFF;fontStyle=1;fontFamily=Tahoma;fontSize=14" parent="1" vertex="1">
          <mxGeometry x="693" y="295.5" width="130" height="60" as="geometry" />
        </mxCell>
        <mxCell id="9eoYk4JdWVkMoVRMEfXp-154" value="Патенти  ✅ ❌" style="rounded=1;fillColor=#23445D;gradientColor=none;strokeColor=none;fontColor=#FFFFFF;fontStyle=1;fontFamily=Tahoma;fontSize=14" parent="1" vertex="1">
          <mxGeometry x="693" y="385.5" width="130" height="60" as="geometry" />
        </mxCell>
        <mxCell id="9eoYk4JdWVkMoVRMEfXp-156" value="Проєкти  ✅ ☑️" style="rounded=1;fillColor=#23445D;gradientColor=none;strokeColor=none;fontColor=#FFFFFF;fontStyle=1;fontFamily=Tahoma;fontSize=14" parent="1" vertex="1">
          <mxGeometry x="693" y="475.5" width="130" height="60" as="geometry" />
        </mxCell>
        <mxCell id="9eoYk4JdWVkMoVRMEfXp-158" value="Розклад&#xa;занять ✅ ☑️" style="rounded=1;fillColor=#23445D;gradientColor=none;strokeColor=none;fontColor=#FFFFFF;fontStyle=1;fontFamily=Tahoma;fontSize=14" parent="1" vertex="1">
          <mxGeometry x="973" y="295.5" width="130" height="60" as="geometry" />
        </mxCell>
        <mxCell id="9eoYk4JdWVkMoVRMEfXp-160" value="Вибір&#xa;дисциплін ✅ ☑️" style="rounded=1;fillColor=#23445D;gradientColor=none;strokeColor=none;fontColor=#FFFFFF;fontStyle=1;fontFamily=Tahoma;fontSize=14" parent="1" vertex="1">
          <mxGeometry x="973" y="385.5" width="130" height="60" as="geometry" />
        </mxCell>
        <mxCell id="9eoYk4JdWVkMoVRMEfXp-162" value="Методичні&#xa;матеріали ✅ ☑️" style="rounded=1;fillColor=#23445D;gradientColor=none;strokeColor=none;fontColor=#FFFFFF;fontStyle=1;fontFamily=Tahoma;fontSize=14" parent="1" vertex="1">
          <mxGeometry x="973" y="475.5" width="130" height="60" as="geometry" />
        </mxCell>
        <mxCell id="9eoYk4JdWVkMoVRMEfXp-163" value="Дипломне&#xa;проєктуваня" style="rounded=1;fillColor=#23445D;gradientColor=none;strokeColor=none;fontColor=#FFFFFF;fontStyle=1;fontFamily=Tahoma;fontSize=14" parent="1" vertex="1">
          <mxGeometry x="973" y="565.5" width="130" height="60" as="geometry" />
        </mxCell>
        <mxCell id="9eoYk4JdWVkMoVRMEfXp-164" value="Практика" style="rounded=1;fillColor=#23445D;gradientColor=none;strokeColor=none;fontColor=#FFFFFF;fontStyle=1;fontFamily=Tahoma;fontSize=14" parent="1" vertex="1">
          <mxGeometry x="973" y="660" width="130" height="60" as="geometry" />
        </mxCell>
        <mxCell id="9eoYk4JdWVkMoVRMEfXp-166" value="Студентська&#xa;наука ✅ ☑️" style="rounded=1;fillColor=#23445D;gradientColor=none;strokeColor=none;fontColor=#FFFFFF;fontStyle=1;fontFamily=Tahoma;fontSize=14" parent="1" vertex="1">
          <mxGeometry x="973" y="750" width="130" height="60" as="geometry" />
        </mxCell>
        <mxCell id="9eoYk4JdWVkMoVRMEfXp-167" value="Олімпіади і&#xa;конкурси" style="rounded=1;fillColor=#23445D;gradientColor=none;strokeColor=none;fontColor=#FFFFFF;fontStyle=1;fontFamily=Tahoma;fontSize=14" parent="1" vertex="1">
          <mxGeometry x="973" y="840" width="130" height="60" as="geometry" />
        </mxCell>
        <mxCell id="9eoYk4JdWVkMoVRMEfXp-170" value="Навчання&#xa;за обміном ✅ ☑️" style="rounded=1;fillColor=#23445D;gradientColor=none;strokeColor=none;fontColor=#FFFFFF;fontStyle=1;fontFamily=Tahoma;fontSize=14" parent="1" vertex="1">
          <mxGeometry x="973" y="930" width="130" height="60" as="geometry" />
        </mxCell>
        <mxCell id="9eoYk4JdWVkMoVRMEfXp-171" value="Працевлаштування ✅ ☑️" style="rounded=1;fillColor=#23445D;gradientColor=none;strokeColor=none;fontColor=#FFFFFF;fontStyle=1;fontFamily=Tahoma;fontSize=14" parent="1" vertex="1">
          <mxGeometry x="973" y="1021" width="160" height="59.5" as="geometry" />
        </mxCell>
        <mxCell id="9eoYk4JdWVkMoVRMEfXp-173" value="Опитування   ✅ ❌" style="rounded=1;fillColor=#23445D;gradientColor=none;strokeColor=none;fontColor=#FFFFFF;fontStyle=1;fontFamily=Tahoma;fontSize=14" parent="1" vertex="1">
          <mxGeometry x="973" y="1120" width="130" height="60" as="geometry" />
        </mxCell>
        <mxCell id="9eoYk4JdWVkMoVRMEfXp-184" value="Вступ до&#xa;бакалаврату ✅ ☑️" style="rounded=1;fillColor=#23445D;gradientColor=none;strokeColor=none;fontColor=#FFFFFF;fontStyle=1;fontFamily=Tahoma;fontSize=14" parent="1" vertex="1">
          <mxGeometry x="1253" y="295.5" width="160" height="60" as="geometry" />
        </mxCell>
        <mxCell id="9eoYk4JdWVkMoVRMEfXp-185" value="Вступ до&#xa;магістратури ✅ ☑️" style="rounded=1;fillColor=#23445D;gradientColor=none;strokeColor=none;fontColor=#FFFFFF;fontStyle=1;fontFamily=Tahoma;fontSize=14" parent="1" vertex="1">
          <mxGeometry x="1253" y="385.5" width="160" height="60" as="geometry" />
        </mxCell>
        <mxCell id="9eoYk4JdWVkMoVRMEfXp-186" value="Вступ до&#xa;аспірантури ✅ ☑️" style="rounded=1;fillColor=#23445D;gradientColor=none;strokeColor=none;fontColor=#FFFFFF;fontStyle=1;fontFamily=Tahoma;fontSize=14" parent="1" vertex="1">
          <mxGeometry x="1253" y="475.5" width="160" height="60" as="geometry" />
        </mxCell>
        <mxCell id="9eoYk4JdWVkMoVRMEfXp-191" value="Атестація&#xa;енергаудиторів  ❌" style="rounded=1;fillColor=#23445D;gradientColor=none;strokeColor=none;fontColor=#FFFFFF;fontStyle=1;fontFamily=Tahoma;fontSize=14" parent="1" vertex="1">
          <mxGeometry x="1533" y="295.5" width="150" height="60" as="geometry" />
        </mxCell>
        <mxCell id="9eoYk4JdWVkMoVRMEfXp-193" value="Екскурсії  ✅ ☑️" style="rounded=1;fillColor=#23445D;gradientColor=none;strokeColor=none;fontColor=#FFFFFF;fontStyle=1;fontFamily=Tahoma;fontSize=14" parent="1" vertex="1">
          <mxGeometry x="1813" y="295.5" width="130" height="60" as="geometry" />
        </mxCell>
        <mxCell id="9eoYk4JdWVkMoVRMEfXp-194" value="Заходи  ✅ ☑️" style="rounded=1;fillColor=#23445D;gradientColor=none;strokeColor=none;fontColor=#FFFFFF;fontStyle=1;fontFamily=Tahoma;fontSize=14" parent="1" vertex="1">
          <mxGeometry x="1813" y="385.5" width="130" height="60" as="geometry" />
        </mxCell>
        <mxCell id="9eoYk4JdWVkMoVRMEfXp-195" value="Випуски  ✅ ☑️" style="rounded=1;fillColor=#23445D;gradientColor=none;strokeColor=none;fontColor=#FFFFFF;fontStyle=1;fontFamily=Tahoma;fontSize=14" parent="1" vertex="1">
          <mxGeometry x="1813" y="475.5" width="130" height="60" as="geometry" />
        </mxCell>
      </root>
    </mxGraphModel>
  </diagram>
</mxfile>
